<mxfile host="app.diagrams.net" agent="Mozilla/5.0 (Windows NT 10.0; Win64; x64) AppleWebKit/537.36 (KHTML, like Gecko) Chrome/139.0.0.0 Safari/537.36" version="28.2.0">
  <diagram name="Page-1" id="zKZfX67A0l034MwszDsR">
    <mxGraphModel grid="1" page="1" gridSize="10" guides="1" tooltips="1" connect="1" arrows="1" fold="1" pageScale="1" pageWidth="850" pageHeight="1100" math="0" shadow="0">
      <root>
        <mxCell id="0" />
        <mxCell id="1" parent="0" />
        <mxCell id="iLm1VxV9AhONY6ygI4Ia-1" value="&lt;h1&gt;&lt;b style=&quot;line-height: 170%;&quot;&gt;Student Information System&lt;/b&gt;&lt;/h1&gt;" style="rounded=0;whiteSpace=wrap;html=1;fillColor=#fa6800;fontColor=#000000;strokeColor=#C73500;" vertex="1" parent="1">
          <mxGeometry x="160" y="40" width="490" height="60" as="geometry" />
        </mxCell>
        <mxCell id="Bq1xLEzrA3YZa6A8xb9z-5" style="edgeStyle=orthogonalEdgeStyle;rounded=0;orthogonalLoop=1;jettySize=auto;html=1;exitX=0.5;exitY=1;exitDx=0;exitDy=0;" edge="1" parent="1" source="iLm1VxV9AhONY6ygI4Ia-2">
          <mxGeometry relative="1" as="geometry">
            <mxPoint x="139.53846153846143" y="270" as="targetPoint" />
          </mxGeometry>
        </mxCell>
        <mxCell id="Bq1xLEzrA3YZa6A8xb9z-7" style="edgeStyle=orthogonalEdgeStyle;rounded=0;orthogonalLoop=1;jettySize=auto;html=1;exitX=1;exitY=0.5;exitDx=0;exitDy=0;" edge="1" parent="1" source="iLm1VxV9AhONY6ygI4Ia-2">
          <mxGeometry relative="1" as="geometry">
            <mxPoint x="289.9999999999998" y="180.38461538461536" as="targetPoint" />
          </mxGeometry>
        </mxCell>
        <mxCell id="iLm1VxV9AhONY6ygI4Ia-2" value="&lt;h2&gt;admin&lt;/h2&gt;" style="rounded=0;whiteSpace=wrap;html=1;fillColor=#fa6800;fontColor=#000000;strokeColor=#C73500;" vertex="1" parent="1">
          <mxGeometry x="80" y="150" width="120" height="60" as="geometry" />
        </mxCell>
        <mxCell id="iLm1VxV9AhONY6ygI4Ia-4" value="&lt;h2&gt;Login to system&lt;/h2&gt;" style="ellipse;whiteSpace=wrap;html=1;fillColor=#fa6800;fontColor=#000000;strokeColor=#C73500;" vertex="1" parent="1">
          <mxGeometry x="300" y="130" width="90" height="110" as="geometry" />
        </mxCell>
        <mxCell id="Bq1xLEzrA3YZa6A8xb9z-15" style="edgeStyle=orthogonalEdgeStyle;rounded=0;orthogonalLoop=1;jettySize=auto;html=1;exitX=0.5;exitY=1;exitDx=0;exitDy=0;entryX=0.5;entryY=0;entryDx=0;entryDy=0;" edge="1" parent="1" source="iLm1VxV9AhONY6ygI4Ia-9" target="iLm1VxV9AhONY6ygI4Ia-29">
          <mxGeometry relative="1" as="geometry" />
        </mxCell>
        <mxCell id="iLm1VxV9AhONY6ygI4Ia-9" value="&lt;h2&gt;Check&lt;br&gt;Roles of&amp;nbsp;&lt;br&gt;Acces&lt;/h2&gt;" style="ellipse;whiteSpace=wrap;html=1;fillColor=#fa6800;fontColor=#000000;strokeColor=#C73500;" vertex="1" parent="1">
          <mxGeometry x="450" y="130" width="90" height="110" as="geometry" />
        </mxCell>
        <mxCell id="Bq1xLEzrA3YZa6A8xb9z-13" style="edgeStyle=orthogonalEdgeStyle;rounded=0;orthogonalLoop=1;jettySize=auto;html=1;exitX=0.5;exitY=1;exitDx=0;exitDy=0;entryX=0.5;entryY=0;entryDx=0;entryDy=0;" edge="1" parent="1" source="iLm1VxV9AhONY6ygI4Ia-11" target="iLm1VxV9AhONY6ygI4Ia-28">
          <mxGeometry relative="1" as="geometry" />
        </mxCell>
        <mxCell id="iLm1VxV9AhONY6ygI4Ia-11" value="&lt;h2&gt;Forget&lt;br&gt;Password&lt;/h2&gt;" style="ellipse;whiteSpace=wrap;html=1;fillColor=#fa6800;fontColor=#000000;strokeColor=#C73500;" vertex="1" parent="1">
          <mxGeometry x="90" y="280" width="90" height="110" as="geometry" />
        </mxCell>
        <mxCell id="Bq1xLEzrA3YZa6A8xb9z-9" style="edgeStyle=orthogonalEdgeStyle;rounded=0;orthogonalLoop=1;jettySize=auto;html=1;exitX=1;exitY=0.5;exitDx=0;exitDy=0;" edge="1" parent="1" source="iLm1VxV9AhONY6ygI4Ia-17">
          <mxGeometry relative="1" as="geometry">
            <mxPoint x="390.30769230769215" y="335.7692307692307" as="targetPoint" />
          </mxGeometry>
        </mxCell>
        <mxCell id="iLm1VxV9AhONY6ygI4Ia-17" value="&lt;h2&gt;Check&lt;br&gt;credentals&lt;/h2&gt;" style="ellipse;whiteSpace=wrap;html=1;fillColor=#fa6800;fontColor=#000000;strokeColor=#C73500;" vertex="1" parent="1">
          <mxGeometry x="300" y="280" width="90" height="110" as="geometry" />
        </mxCell>
        <mxCell id="iLm1VxV9AhONY6ygI4Ia-18" value="&lt;h2&gt;Manage Timetable&lt;br&gt;Details&lt;/h2&gt;" style="rounded=0;whiteSpace=wrap;html=1;fillColor=#fa6800;fontColor=#000000;strokeColor=#C73500;" vertex="1" parent="1">
          <mxGeometry x="620" y="140" width="180" height="60" as="geometry" />
        </mxCell>
        <mxCell id="iLm1VxV9AhONY6ygI4Ia-19" value="&lt;h2&gt;Manage Attendence&lt;br&gt;Detail&lt;/h2&gt;" style="rounded=0;whiteSpace=wrap;html=1;fillColor=#fa6800;fontColor=#000000;strokeColor=#C73500;" vertex="1" parent="1">
          <mxGeometry x="620" y="230" width="180" height="60" as="geometry" />
        </mxCell>
        <mxCell id="iLm1VxV9AhONY6ygI4Ia-22" value="&lt;h2&gt;Manage Class Details&lt;/h2&gt;" style="rounded=0;whiteSpace=wrap;html=1;fillColor=#fa6800;fontColor=#000000;strokeColor=#C73500;" vertex="1" parent="1">
          <mxGeometry x="620" y="320" width="180" height="40" as="geometry" />
        </mxCell>
        <mxCell id="iLm1VxV9AhONY6ygI4Ia-23" style="edgeStyle=orthogonalEdgeStyle;rounded=0;orthogonalLoop=1;jettySize=auto;html=1;exitX=0.5;exitY=1;exitDx=0;exitDy=0;" edge="1" parent="1" source="iLm1VxV9AhONY6ygI4Ia-22" target="iLm1VxV9AhONY6ygI4Ia-22">
          <mxGeometry relative="1" as="geometry" />
        </mxCell>
        <mxCell id="iLm1VxV9AhONY6ygI4Ia-24" value="&lt;h2&gt;Manage Student Details&lt;/h2&gt;" style="rounded=0;whiteSpace=wrap;html=1;fillColor=#fa6800;fontColor=#000000;strokeColor=#C73500;" vertex="1" parent="1">
          <mxGeometry x="620" y="385" width="180" height="55" as="geometry" />
        </mxCell>
        <mxCell id="iLm1VxV9AhONY6ygI4Ia-25" value="&lt;h2&gt;Manage Fees Details&lt;/h2&gt;" style="rounded=0;whiteSpace=wrap;html=1;fillColor=#fa6800;fontColor=#000000;strokeColor=#C73500;" vertex="1" parent="1">
          <mxGeometry x="620" y="460" width="180" height="40" as="geometry" />
        </mxCell>
        <mxCell id="iLm1VxV9AhONY6ygI4Ia-26" value="&lt;h2&gt;Manage Teacher Profiles&lt;/h2&gt;" style="rounded=0;whiteSpace=wrap;html=1;fillColor=#fa6800;fontColor=#000000;strokeColor=#C73500;" vertex="1" parent="1">
          <mxGeometry x="620" y="520" width="180" height="60" as="geometry" />
        </mxCell>
        <mxCell id="iLm1VxV9AhONY6ygI4Ia-27" value="&lt;h2&gt;Manage Report&lt;/h2&gt;" style="rounded=0;whiteSpace=wrap;html=1;fillColor=#fa6800;fontColor=#000000;strokeColor=#C73500;" vertex="1" parent="1">
          <mxGeometry x="620" y="600" width="180" height="50" as="geometry" />
        </mxCell>
        <mxCell id="iLm1VxV9AhONY6ygI4Ia-28" value="&lt;h2&gt;Send Email&lt;br&gt;to User&lt;/h2&gt;" style="ellipse;whiteSpace=wrap;html=1;fillColor=#fa6800;fontColor=#000000;strokeColor=#C73500;" vertex="1" parent="1">
          <mxGeometry x="90" y="440" width="90" height="110" as="geometry" />
        </mxCell>
        <mxCell id="iLm1VxV9AhONY6ygI4Ia-29" value="&lt;h2&gt;Manage&lt;br&gt;Modules&lt;/h2&gt;" style="ellipse;whiteSpace=wrap;html=1;fillColor=#fa6800;fontColor=#000000;strokeColor=#C73500;" vertex="1" parent="1">
          <mxGeometry x="450" y="280" width="90" height="110" as="geometry" />
        </mxCell>
        <mxCell id="iLm1VxV9AhONY6ygI4Ia-30" value="&lt;h2&gt;Manage System&lt;br&gt;Admins&lt;/h2&gt;" style="rounded=0;whiteSpace=wrap;html=1;fillColor=#fa6800;fontColor=#000000;strokeColor=#C73500;" vertex="1" parent="1">
          <mxGeometry x="40" y="670" width="200" height="60" as="geometry" />
        </mxCell>
        <mxCell id="Bq1xLEzrA3YZa6A8xb9z-1" value="&lt;h2&gt;Manage Roles of User&lt;/h2&gt;" style="rounded=0;whiteSpace=wrap;html=1;fillColor=#fa6800;fontColor=#000000;strokeColor=#C73500;" vertex="1" parent="1">
          <mxGeometry x="270" y="670" width="210" height="60" as="geometry" />
        </mxCell>
        <mxCell id="Bq1xLEzrA3YZa6A8xb9z-2" value="&lt;h2&gt;Manage User&amp;nbsp;&lt;br&gt;Permission&lt;/h2&gt;" style="rounded=0;whiteSpace=wrap;html=1;fillColor=#fa6800;fontColor=#000000;strokeColor=#C73500;" vertex="1" parent="1">
          <mxGeometry x="510" y="670" width="200" height="60" as="geometry" />
        </mxCell>
        <mxCell id="-EHLnF0lWky7b-D6DQGH-6" value="" style="endArrow=classic;html=1;rounded=0;entryX=0.61;entryY=-0.05;entryDx=0;entryDy=0;entryPerimeter=0;exitX=0;exitY=1;exitDx=0;exitDy=0;" edge="1" parent="1" source="iLm1VxV9AhONY6ygI4Ia-29">
          <mxGeometry width="50" height="50" relative="1" as="geometry">
            <mxPoint x="438.1299697471586" y="372.7653154472771" as="sourcePoint" />
            <mxPoint x="140" y="670" as="targetPoint" />
          </mxGeometry>
        </mxCell>
        <mxCell id="-EHLnF0lWky7b-D6DQGH-8" value="" style="endArrow=classic;html=1;rounded=0;entryX=0.5;entryY=0;entryDx=0;entryDy=0;" edge="1" parent="1" source="iLm1VxV9AhONY6ygI4Ia-29" target="Bq1xLEzrA3YZa6A8xb9z-1">
          <mxGeometry width="50" height="50" relative="1" as="geometry">
            <mxPoint x="450" y="390" as="sourcePoint" />
            <mxPoint x="430" y="560" as="targetPoint" />
          </mxGeometry>
        </mxCell>
        <mxCell id="-EHLnF0lWky7b-D6DQGH-9" value="" style="endArrow=classic;html=1;rounded=0;entryX=0.13;entryY=-0.017;entryDx=0;entryDy=0;exitX=0.589;exitY=0.991;exitDx=0;exitDy=0;exitPerimeter=0;entryPerimeter=0;" edge="1" parent="1">
          <mxGeometry width="50" height="50" relative="1" as="geometry">
            <mxPoint x="490" y="390" as="sourcePoint" />
            <mxPoint x="522.99" y="669.97" as="targetPoint" />
          </mxGeometry>
        </mxCell>
        <mxCell id="-EHLnF0lWky7b-D6DQGH-11" value="" style="endArrow=classic;html=1;rounded=0;exitX=1;exitY=0.5;exitDx=0;exitDy=0;entryX=0;entryY=0.5;entryDx=0;entryDy=0;" edge="1" parent="1" source="iLm1VxV9AhONY6ygI4Ia-17" target="iLm1VxV9AhONY6ygI4Ia-9">
          <mxGeometry width="50" height="50" relative="1" as="geometry">
            <mxPoint x="510" y="360" as="sourcePoint" />
            <mxPoint x="560" y="310" as="targetPoint" />
          </mxGeometry>
        </mxCell>
        <mxCell id="-EHLnF0lWky7b-D6DQGH-12" value="" style="endArrow=classic;html=1;rounded=0;exitX=0.5;exitY=1;exitDx=0;exitDy=0;entryX=0.5;entryY=0;entryDx=0;entryDy=0;" edge="1" parent="1" source="iLm1VxV9AhONY6ygI4Ia-4" target="iLm1VxV9AhONY6ygI4Ia-17">
          <mxGeometry width="50" height="50" relative="1" as="geometry">
            <mxPoint x="510" y="360" as="sourcePoint" />
            <mxPoint x="560" y="310" as="targetPoint" />
          </mxGeometry>
        </mxCell>
        <mxCell id="-EHLnF0lWky7b-D6DQGH-13" value="" style="endArrow=classic;html=1;rounded=0;exitX=0.722;exitY=0.036;exitDx=0;exitDy=0;entryX=0;entryY=0.5;entryDx=0;entryDy=0;exitPerimeter=0;" edge="1" parent="1" source="iLm1VxV9AhONY6ygI4Ia-29">
          <mxGeometry width="50" height="50" relative="1" as="geometry">
            <mxPoint x="526.8198051533946" y="289.9991270347399" as="sourcePoint" />
            <mxPoint x="620" y="163.89" as="targetPoint" />
          </mxGeometry>
        </mxCell>
        <mxCell id="-EHLnF0lWky7b-D6DQGH-15" value="" style="endArrow=classic;html=1;rounded=0;entryX=0;entryY=0.5;entryDx=0;entryDy=0;exitX=1;exitY=0;exitDx=0;exitDy=0;" edge="1" parent="1" source="iLm1VxV9AhONY6ygI4Ia-29" target="iLm1VxV9AhONY6ygI4Ia-19">
          <mxGeometry width="50" height="50" relative="1" as="geometry">
            <mxPoint x="550" y="340" as="sourcePoint" />
            <mxPoint x="600" y="290" as="targetPoint" />
          </mxGeometry>
        </mxCell>
        <mxCell id="-EHLnF0lWky7b-D6DQGH-16" value="" style="endArrow=classic;html=1;rounded=0;exitX=1;exitY=0.5;exitDx=0;exitDy=0;" edge="1" parent="1" source="iLm1VxV9AhONY6ygI4Ia-29">
          <mxGeometry width="50" height="50" relative="1" as="geometry">
            <mxPoint x="550" y="340" as="sourcePoint" />
            <mxPoint x="620" y="340" as="targetPoint" />
          </mxGeometry>
        </mxCell>
        <mxCell id="-EHLnF0lWky7b-D6DQGH-17" value="" style="endArrow=classic;html=1;rounded=0;exitX=0.986;exitY=0.664;exitDx=0;exitDy=0;exitPerimeter=0;entryX=0;entryY=0.5;entryDx=0;entryDy=0;" edge="1" parent="1" source="iLm1VxV9AhONY6ygI4Ia-29" target="iLm1VxV9AhONY6ygI4Ia-24">
          <mxGeometry width="50" height="50" relative="1" as="geometry">
            <mxPoint x="560" y="450" as="sourcePoint" />
            <mxPoint x="610" y="400" as="targetPoint" />
          </mxGeometry>
        </mxCell>
        <mxCell id="-EHLnF0lWky7b-D6DQGH-18" value="" style="endArrow=classic;html=1;rounded=0;exitX=1;exitY=1;exitDx=0;exitDy=0;entryX=0;entryY=0.5;entryDx=0;entryDy=0;" edge="1" parent="1" source="iLm1VxV9AhONY6ygI4Ia-29" target="iLm1VxV9AhONY6ygI4Ia-25">
          <mxGeometry width="50" height="50" relative="1" as="geometry">
            <mxPoint x="560" y="450" as="sourcePoint" />
            <mxPoint x="610" y="480" as="targetPoint" />
          </mxGeometry>
        </mxCell>
        <mxCell id="-EHLnF0lWky7b-D6DQGH-19" value="" style="endArrow=classic;html=1;rounded=0;exitX=0.75;exitY=0.952;exitDx=0;exitDy=0;exitPerimeter=0;entryX=0;entryY=0.5;entryDx=0;entryDy=0;" edge="1" parent="1" source="iLm1VxV9AhONY6ygI4Ia-29" target="iLm1VxV9AhONY6ygI4Ia-26">
          <mxGeometry width="50" height="50" relative="1" as="geometry">
            <mxPoint x="560" y="450" as="sourcePoint" />
            <mxPoint x="610" y="400" as="targetPoint" />
          </mxGeometry>
        </mxCell>
        <mxCell id="-EHLnF0lWky7b-D6DQGH-20" value="" style="endArrow=classic;html=1;rounded=0;exitX=0.646;exitY=1.006;exitDx=0;exitDy=0;exitPerimeter=0;entryX=0;entryY=0.5;entryDx=0;entryDy=0;" edge="1" parent="1">
          <mxGeometry width="50" height="50" relative="1" as="geometry">
            <mxPoint x="508.1400000000001" y="389.99999999999994" as="sourcePoint" />
            <mxPoint x="620" y="624.34" as="targetPoint" />
          </mxGeometry>
        </mxCell>
      </root>
    </mxGraphModel>
  </diagram>
</mxfile>
